<?xml version="1.0" standalone="no"?>
<!DOCTYPE svg PUBLIC "-//W3C//DTD SVG 20010904//EN"
 "http://www.w3.org/TR/2001/REC-SVG-20010904/DTD/svg10.dtd">
<svg version="1.0" xmlns="http://www.w3.org/2000/svg"
 width="200.000000pt" height="200.000000pt" viewBox="0 0 200.000000 200.000000"
 preserveAspectRatio="xMidYMid meet">

<g transform="translate(0.000000,200.000000) scale(0.100000,-0.100000)"
fill="#000000" stroke="none">
<path d="M1550 1615 c-134 -38 -308 -184 -396 -335 -17 -27 -23 -30 -71 -30
-32 0 -53 4 -53 11 0 7 -11 9 -27 6 -36 -7 -117 28 -138 59 -37 56 -12 130 53
155 35 14 169 14 205 0 15 -6 27 -7 27 -2 0 13 -82 31 -138 31 -152 0 -248
-92 -197 -190 16 -30 89 -80 118 -80 10 0 17 -8 17 -18 0 -28 11 -34 35 -18
11 8 44 15 73 17 43 3 51 1 47 -11 -3 -8 -42 -71 -85 -141 -44 -69 -80 -133
-80 -141 0 -43 54 -46 118 -6 40 25 37 32 -6 16 -17 -7 -34 -9 -38 -5 -7 6
158 278 179 295 7 5 49 15 94 21 120 17 274 57 359 92 134 56 204 153 157 218
-43 58 -155 83 -253 56z m171 -34 c32 -33 36 -64 15 -115 -37 -90 -231 -173
-471 -202 l-59 -7 18 29 c40 62 118 154 180 211 85 80 152 113 229 113 51 0
62 -4 88 -29z"/>
<path d="M985 1180 c-3 -6 -22 -18 -41 -28 -27 -14 -57 -52 -127 -162 l-92
-144 -110 -18 c-277 -46 -442 -113 -496 -202 -58 -95 20 -172 173 -170 58 0
78 6 154 43 103 51 217 154 291 263 l48 70 75 -5 c134 -9 210 -59 210 -136 0
-42 -24 -72 -75 -92 -37 -14 -160 -15 -197 0 -16 6 -28 7 -28 2 0 -25 133 -38
215 -21 47 10 68 21 99 51 35 36 38 43 33 80 -11 85 -102 139 -237 142 -38 1
-70 5 -70 10 0 4 40 72 90 150 49 79 92 151 96 160 7 18 -1 23 -11 7z m-317
-422 c-75 -107 -195 -223 -268 -257 -73 -35 -142 -41 -189 -16 -32 16 -41 33
-41 78 0 69 67 133 188 182 70 29 263 73 320 74 l33 1 -43 -62z"/>
</g>
</svg>
